<mxfile host="drawio-plugin" modified="2022-03-29T18:53:07.722Z" agent="5.0 (X11; Linux x86_64) AppleWebKit/537.36 (KHTML, like Gecko) Chrome/89.0.4389.114 Safari/537.36" etag="em35ljarV-Q5RQ5PEIba" version="15.5.4" type="embed"><diagram id="mxUdjtBUvNVGy7bzie9H" name="Page-1"><mxGraphModel dx="4349" dy="851" grid="1" gridSize="10" guides="1" tooltips="1" connect="1" arrows="1" fold="1" page="1" pageScale="1" pageWidth="827" pageHeight="1169" math="0" shadow="0"><root><mxCell id="0"/><mxCell id="1" parent="0"/><mxCell id="12" value="IDao" style="swimlane;fontStyle=1;align=center;verticalAlign=top;childLayout=stackLayout;horizontal=1;startSize=26;horizontalStack=0;resizeParent=1;resizeParentMax=0;resizeLast=0;collapsible=1;marginBottom=0;" parent="1" vertex="1"><mxGeometry x="-2917" y="180" width="160" height="130" as="geometry"/></mxCell><mxCell id="13" value="+ getAll(): T" style="text;strokeColor=none;fillColor=none;align=left;verticalAlign=top;spacingLeft=4;spacingRight=4;overflow=hidden;rotatable=0;points=[[0,0.5],[1,0.5]];portConstraint=eastwest;" parent="12" vertex="1"><mxGeometry y="26" width="160" height="26" as="geometry"/></mxCell><mxCell id="14" value="+ get(E id): T" style="text;strokeColor=none;fillColor=none;align=left;verticalAlign=top;spacingLeft=4;spacingRight=4;overflow=hidden;rotatable=0;points=[[0,0.5],[1,0.5]];portConstraint=eastwest;" parent="12" vertex="1"><mxGeometry y="52" width="160" height="26" as="geometry"/></mxCell><mxCell id="15" value="+ update(E elem): bool" style="text;strokeColor=none;fillColor=none;align=left;verticalAlign=top;spacingLeft=4;spacingRight=4;overflow=hidden;rotatable=0;points=[[0,0.5],[1,0.5]];portConstraint=eastwest;" parent="12" vertex="1"><mxGeometry y="78" width="160" height="26" as="geometry"/></mxCell><mxCell id="16" value="+ add(E elem): void" style="text;strokeColor=none;fillColor=none;align=left;verticalAlign=top;spacingLeft=4;spacingRight=4;overflow=hidden;rotatable=0;points=[[0,0.5],[1,0.5]];portConstraint=eastwest;" parent="12" vertex="1"><mxGeometry y="104" width="160" height="26" as="geometry"/></mxCell><mxCell id="17" value="ArchivoDao" style="swimlane;fontStyle=1;align=center;verticalAlign=top;childLayout=stackLayout;horizontal=1;startSize=26;horizontalStack=0;resizeParent=1;resizeParentMax=0;resizeLast=0;collapsible=1;marginBottom=0;" parent="1" vertex="1"><mxGeometry x="-3250" y="520" width="130" height="34" as="geometry"><mxRectangle x="-1900" y="270" width="100" height="26" as="alternateBounds"/></mxGeometry></mxCell><mxCell id="18" value="" style="line;strokeWidth=1;fillColor=none;align=left;verticalAlign=middle;spacingTop=-1;spacingLeft=3;spacingRight=3;rotatable=0;labelPosition=right;points=[];portConstraint=eastwest;" parent="17" vertex="1"><mxGeometry y="26" width="130" height="8" as="geometry"/></mxCell><mxCell id="19" value="CarpetaDao" style="swimlane;fontStyle=1;align=center;verticalAlign=top;childLayout=stackLayout;horizontal=1;startSize=26;horizontalStack=0;resizeParent=1;resizeParentMax=0;resizeLast=0;collapsible=1;marginBottom=0;" parent="1" vertex="1"><mxGeometry x="-3100" y="520" width="130" height="34" as="geometry"/></mxCell><mxCell id="20" value="" style="line;strokeWidth=1;fillColor=none;align=left;verticalAlign=middle;spacingTop=-1;spacingLeft=3;spacingRight=3;rotatable=0;labelPosition=right;points=[];portConstraint=eastwest;" parent="19" vertex="1"><mxGeometry y="26" width="130" height="8" as="geometry"/></mxCell><mxCell id="23" value="ComentarioDao" style="swimlane;fontStyle=1;align=center;verticalAlign=top;childLayout=stackLayout;horizontal=1;startSize=26;horizontalStack=0;resizeParent=1;resizeParentMax=0;resizeLast=0;collapsible=1;marginBottom=0;" parent="1" vertex="1"><mxGeometry x="-2942" y="520" width="130" height="34" as="geometry"/></mxCell><mxCell id="24" value="" style="line;strokeWidth=1;fillColor=none;align=left;verticalAlign=middle;spacingTop=-1;spacingLeft=3;spacingRight=3;rotatable=0;labelPosition=right;points=[];portConstraint=eastwest;" parent="23" vertex="1"><mxGeometry y="26" width="130" height="8" as="geometry"/></mxCell><mxCell id="25" value="UsuarioDao" style="swimlane;fontStyle=1;align=center;verticalAlign=top;childLayout=stackLayout;horizontal=1;startSize=26;horizontalStack=0;resizeParent=1;resizeParentMax=0;resizeLast=0;collapsible=1;marginBottom=0;" parent="1" vertex="1"><mxGeometry x="-2792" y="520" width="130" height="34" as="geometry"/></mxCell><mxCell id="26" value="" style="line;strokeWidth=1;fillColor=none;align=left;verticalAlign=middle;spacingTop=-1;spacingLeft=3;spacingRight=3;rotatable=0;labelPosition=right;points=[];portConstraint=eastwest;" parent="25" vertex="1"><mxGeometry y="26" width="130" height="8" as="geometry"/></mxCell><mxCell id="27" value="CatedraDao" style="swimlane;fontStyle=1;align=center;verticalAlign=top;childLayout=stackLayout;horizontal=1;startSize=26;horizontalStack=0;resizeParent=1;resizeParentMax=0;resizeLast=0;collapsible=1;marginBottom=0;" parent="1" vertex="1"><mxGeometry x="-2642" y="520" width="130" height="34" as="geometry"/></mxCell><mxCell id="28" value="" style="line;strokeWidth=1;fillColor=none;align=left;verticalAlign=middle;spacingTop=-1;spacingLeft=3;spacingRight=3;rotatable=0;labelPosition=right;points=[];portConstraint=eastwest;" parent="27" vertex="1"><mxGeometry y="26" width="130" height="8" as="geometry"/></mxCell><mxCell id="29" style="edgeStyle=none;html=1;endArrow=block;endFill=1;entryX=0.25;entryY=1;entryDx=0;entryDy=0;" parent="1" source="17" target="36" edge="1"><mxGeometry relative="1" as="geometry"><mxPoint x="-3034" y="684" as="sourcePoint"/><mxPoint x="-3315.58371040724" y="434" as="targetPoint"/></mxGeometry></mxCell><mxCell id="30" style="edgeStyle=none;html=1;endArrow=block;endFill=1;exitX=0.5;exitY=0;exitDx=0;exitDy=0;entryX=0.288;entryY=1.044;entryDx=0;entryDy=0;entryPerimeter=0;" parent="1" source="23" target="16" edge="1"><mxGeometry relative="1" as="geometry"><mxPoint x="-2798.239819004525" y="475" as="sourcePoint"/><mxPoint x="-2838.5599999999995" y="405.7919999999999" as="targetPoint"/></mxGeometry></mxCell><mxCell id="31" style="edgeStyle=none;html=1;endArrow=block;endFill=1;entryX=0.75;entryY=1;entryDx=0;entryDy=0;" parent="1" source="19" target="36" edge="1"><mxGeometry relative="1" as="geometry"><mxPoint x="-3008.778481012658" y="534" as="sourcePoint"/><mxPoint x="-3130" y="444" as="targetPoint"/></mxGeometry></mxCell><mxCell id="33" style="edgeStyle=none;html=1;endArrow=block;endFill=1;" parent="1" source="27" target="12" edge="1"><mxGeometry relative="1" as="geometry"><mxPoint x="-2610.132911392405" y="490" as="sourcePoint"/><mxPoint x="-2722" y="407.79069767441865" as="targetPoint"/></mxGeometry></mxCell><mxCell id="34" style="edgeStyle=none;html=1;endArrow=block;endFill=1;entryX=0.624;entryY=1.044;entryDx=0;entryDy=0;entryPerimeter=0;" parent="1" source="25" target="16" edge="1"><mxGeometry relative="1" as="geometry"><mxPoint x="-2471.8101265822784" y="490" as="sourcePoint"/><mxPoint x="-2722" y="383.1621621621621" as="targetPoint"/><Array as="points"/></mxGeometry></mxCell><mxCell id="35" value="Conexion" style="swimlane;fontStyle=1;align=center;verticalAlign=top;childLayout=stackLayout;horizontal=1;startSize=26;horizontalStack=0;resizeParent=1;resizeParentMax=0;resizeLast=0;collapsible=1;marginBottom=0;" parent="1" vertex="1"><mxGeometry x="-3152" y="270" width="160" height="30" as="geometry"/></mxCell><mxCell id="36" value="ElementoDao" style="swimlane;fontStyle=1;align=center;verticalAlign=top;childLayout=stackLayout;horizontal=1;startSize=26;horizontalStack=0;resizeParent=1;resizeParentMax=0;resizeLast=0;collapsible=1;marginBottom=0;" parent="1" vertex="1"><mxGeometry x="-3190" y="410" width="130" height="30" as="geometry"/></mxCell><mxCell id="37" value="" style="line;strokeWidth=1;fillColor=none;align=left;verticalAlign=middle;spacingTop=-1;spacingLeft=3;spacingRight=3;rotatable=0;labelPosition=right;points=[];portConstraint=eastwest;" parent="36" vertex="1"><mxGeometry y="26" width="130" height="4" as="geometry"/></mxCell><mxCell id="38" style="edgeStyle=none;html=1;endArrow=block;endFill=1;exitX=0.5;exitY=0;exitDx=0;exitDy=0;entryX=0;entryY=1.038;entryDx=0;entryDy=0;entryPerimeter=0;" parent="1" source="36" target="16" edge="1"><mxGeometry relative="1" as="geometry"><mxPoint x="-2867" y="530" as="sourcePoint"/><mxPoint x="-2831.96" y="324.0039999999999" as="targetPoint"/></mxGeometry></mxCell></root></mxGraphModel></diagram></mxfile>